<svg xmlns="http://www.w3.org/2000/svg" viewBox="-62.0 -109.7 1882.6 611.8" role="img" aria-label="Fanni’s Store — Personalized · Handcrafted"><title>Fanni’s Store</title><path fill="#E8703E" d="M682.9 -49.7 Q686.816 -35.816 700.6999999999999 -31.9 Q686.816 -27.983999999999998 682.9 -14.099999999999998 Q678.9839999999999 -27.983999999999998 665.1 -31.9 Q678.9839999999999 -35.816 682.9 -49.7Z"/><path fill="#3E9B78" d="M44.699999999999996 309.9Q39.6 309.9 33.0 306.0Q18.0 297.0 18.0 282.9Q18.0 279.6 18.3 278.7Q19.5 268.2 20.4 260.4Q21.3 252.6 21.599999999999998 247.5Q22.5 238.8 24.0 225.45000000000002Q25.5 212.10000000000002 27.9 194.4Q31.799999999999997 166.5 47.55 145.2Q63.3 123.9 89.1 106.20000000000002Q114.89999999999999 88.5 140.1 83.70000000000002Q144.6 82.5 151.79999999999998 82.5Q171.6 82.5 185.7 97.5Q191.4 103.20000000000002 191.4 107.4Q191.4 108.6 189.9 112.20000000000002Q186.0 118.5 179.1 118.5Q176.7 118.5 174.0 117.6Q173.4 117.30000000000001 172.5 117.00000000000001Q171.6 116.70000000000002 170.4 116.4Q169.2 116.1 168.3 115.8Q167.4 115.5 166.79999999999998 115.20000000000002Q162.0 111.6 155.1 111.6Q146.4 108.9 135.0 114.9Q129.29999999999998 117.9 121.79999999999998 123.15Q114.3 128.4 104.7 135.9Q99.6 139.8 95.25 144.0Q90.89999999999999 148.20000000000002 87.0 153.0L79.8 166.5Q74.1 177.3 71.1 184.8Q68.1 192.3 66.75 198.9Q65.39999999999999 205.5 64.2 214.2Q66.3 214.2 70.19999999999999 214.05Q74.1 213.9 78.0 213.75Q81.89999999999999 213.60000000000002 83.1 213.60000000000002L100.2 210.0Q104.39999999999999 208.8 107.69999999999999 208.05Q111.0 207.3 115.8 206.4Q120.6 205.5 129.0 204.3Q134.7 203.4 141.3 203.10000000000002Q147.9 202.8 150.0 202.8Q153.6 202.8 156.3 202.8Q159.0 202.8 160.79999999999998 202.5Q165.9 202.5 168.0 204.3Q176.7 212.10000000000002 176.7 217.2Q176.7 220.8 174.0 222.3Q171.29999999999998 223.8 165.6 225.60000000000002L137.7 231.60000000000002L79.5 247.5L76.8 248.4Q76.2 248.7 75.3 249.0Q74.39999999999999 249.3 73.8 249.6Q67.5 250.8 64.05 251.55Q60.599999999999994 252.3 59.099999999999994 256.05Q57.599999999999994 259.8 56.4 270.6V282.6Q56.4 286.5 56.25 289.65Q56.1 292.8 55.8 294.9Q54.0 309.9 44.699999999999996 309.9ZM263.7 299.4Q255.3 299.4 246.15 296.85Q237.0 294.3 229.5 289.95000000000005Q222.0 285.6 218.1 280.5Q212.1 271.5 212.4 262.5Q213.0 247.8 224.4 233.7Q232.2 224.4 238.64999999999998 219.0Q245.1 213.60000000000002 252.75 210.75Q260.4 207.9 271.2 207.0Q273.6 207.0 277.65 206.4Q281.7 205.8 285.0 204.75Q288.3 203.7 288.3 202.5Q288.3 198.3 284.7 194.7Q280.5 191.4 269.4 191.4Q267.3 191.4 264.15 191.55Q261.0 191.7 256.8 192.0Q252.6 192.3 249.6 192.45000000000002Q246.6 192.60000000000002 245.1 192.60000000000002Q235.2 192.60000000000002 230.4 189.3Q229.2 189.0 229.2 183.60000000000002Q229.2 174.3 235.5 172.2Q242.1 169.8 248.7 168.60000000000002Q255.3 167.4 262.2 167.1Q279.6 167.1 294.45000000000005 174.75Q309.3 182.4 316.2 193.8Q323.1 204.9 325.2 225.3Q326.4 236.4 327.0 250.8Q327.6 265.2 327.6 282.6Q327.6 292.2 324.9 293.7Q322.5 295.2 320.4 295.2Q317.7 295.2 314.1 293.25Q310.5 291.3 307.8 288.3L305.7 284.7Q304.5 281.4 303.0 281.1Q300.3 281.1 297.0 283.65Q293.7 286.2 291.3 288.9Q289.5 290.7 287.7 292.2Q285.9 293.7 283.8 294.9Q280.5 297.0 270.6 298.8Q268.5 299.1 266.85 299.25Q265.2 299.4 263.7 299.4ZM254.4 278.4Q256.5 278.4 258.3 277.8Q265.2 275.7 272.25 273.15Q279.3 270.6 285.9 267.6Q288.9 266.1 291.29999999999995 262.5Q293.7 258.9 294.3 258.0Q294.9 257.1 295.35 252.75Q295.8 248.4 295.5 245.7Q294.9 244.8 294.6 240.9Q294.3 238.8 293.55 237.15Q292.8 235.5 292.2 234.0Q290.7 231.60000000000002 287.4 229.5Q284.1 227.4 281.4 227.7Q275.7 228.0 269.1 231.9Q262.5 235.8 256.8 242.4Q251.1 249.3 247.95 256.35Q244.8 263.4 244.8 269.4Q245.1 274.2 249.3 276.9Q251.7 278.4 254.4 278.4ZM376.8 301.5Q358.20000000000005 299.4 357.6 285.6Q357.3 268.2 360.3 244.5Q361.5 235.8 362.4 228.9Q363.3 222.0 364.20000000000005 216.9Q364.8 211.8 366.0 205.2L367.8 189.3Q368.40000000000003 184.5 368.70000000000005 181.65Q369.0 178.8 372.0 176.55Q375.0 174.3 384.0 171.3Q402.3 171.3 405.6 186.3V186.9Q405.6 187.8 405.45000000000005 188.85000000000002Q405.3 189.9 405.0 191.4Q404.40000000000003 195.0 404.70000000000005 195.3Q425.40000000000003 190.8 439.8 190.8Q462.6 190.8 473.70000000000005 212.4Q483.0 230.7 483.0 252.9Q483.0 255.9 482.7 259.95Q482.4 264.0 481.8 269.4Q480.9 276.6 476.1 280.95000000000005Q471.3 285.3 464.70000000000005 285.3Q460.20000000000005 285.3 457.35 284.4Q454.5 283.5 453.15 279.45Q451.8 275.4 451.20000000000005 266.4L450.90000000000003 260.1Q450.6 251.1 450.0 243.3Q449.40000000000003 235.5 448.5 228.9Q447.0 219.0 436.20000000000005 219.0Q433.8 219.0 430.95000000000005 219.45Q428.1 219.9 424.8 220.5Q418.20000000000005 222.3 414.6 223.5Q411.0 224.7 408.3 226.2Q405.6 227.7 401.1 231.0Q399.0 232.5 398.1 237.0Q397.20000000000005 241.5 397.20000000000005 242.1Q395.1 251.7 393.15000000000003 263.25Q391.20000000000005 274.8 388.8 288.0Q388.5 288.6 388.35 289.95000000000005Q388.20000000000005 291.3 387.6 293.7Q386.70000000000005 298.5 376.8 301.5ZM532.2 301.5Q513.6 299.4 513.0 285.6Q512.7 268.2 515.7 244.5Q516.9 235.8 517.8 228.9Q518.7 222.0 519.6 216.9Q520.2 211.8 521.4 205.2L523.2 189.3Q523.8 184.5 524.0999999999999 181.65Q524.4 178.8 527.4 176.55Q530.4 174.3 539.4 171.3Q557.7 171.3 561.0 186.3V186.9Q561.0 187.8 560.85 188.85000000000002Q560.7 189.9 560.4 191.4Q559.8 195.0 560.1 195.3Q580.8 190.8 595.2 190.8Q618.0 190.8 629.1 212.4Q638.4 230.7 638.4 252.9Q638.4 255.9 638.0999999999999 259.95Q637.8 264.0 637.2 269.4Q636.3 276.6 631.5 280.95000000000005Q626.7 285.3 620.1 285.3Q615.6 285.3 612.75 284.4Q609.9 283.5 608.55 279.45Q607.2 275.4 606.6 266.4L606.3 260.1Q606.0 251.1 605.4 243.3Q604.8 235.5 603.9 228.9Q602.4 219.0 591.6 219.0Q589.2 219.0 586.35 219.45Q583.5 219.9 580.2 220.5Q573.6 222.3 570.0 223.5Q566.4 224.7 563.7 226.2Q561.0 227.7 556.5 231.0Q554.4 232.5 553.5 237.0Q552.6 241.5 552.6 242.1Q550.5 251.7 548.55 263.25Q546.6 274.8 544.2 288.0Q543.9 288.6 543.75 289.95000000000005Q543.6 291.3 543.0 293.7Q542.1 298.5 532.2 301.5ZM693.6 168.0 681.6 165.9Q670.5 164.1 670.8 149.4Q668.4 147.0 668.4 143.70000000000002Q668.4 141.6 669.5999999999999 139.95Q670.8 138.3 673.5 138.3Q684.3 138.3 699.0 145.8Q700.8 146.1 702.15 150.75Q703.5 155.4 702.6 158.4Q702.3 160.5 699.0 163.20000000000002Q695.1 166.20000000000002 693.6 168.0ZM700.8 300.3Q693.3 300.3 688.05 296.1Q682.8 291.9 681.6 285.3L673.8 221.7L672.6 216.0Q674.1 209.7 674.1 206.4Q674.1 202.2 676.65 199.8Q679.1999999999999 197.4 686.4 197.4Q694.8 197.4 701.25 202.65Q707.6999999999999 207.9 709.1999999999999 216.3Q710.1 220.5 710.4 225.6Q710.6999999999999 230.7 710.6999999999999 232.2L714.9 283.5Q715.5 291.6 712.5 295.95000000000005Q709.5 300.3 700.8 300.3ZM751.1999999999999 180.60000000000002 749.4 175.5Q747.9 171.0 747.9 168.6Q747.9 165.9 750.6 158.4Q762.0 126.6 761.1 98.4Q760.5 90.6 765.6 80.70000000000002Q766.8 78.0 769.5 76.35000000000001Q772.1999999999999 74.70000000000002 775.1999999999999 74.70000000000002Q778.8 74.70000000000002 782.1 76.80000000000001Q787.5 80.4 791.25 86.7Q795.0 93.0 795.0 99.6Q795.0 102.6 794.1 105.9Q782.4 141.3 771.6 165.3Q768.6 172.2 763.65 176.55Q758.6999999999999 180.9 751.1999999999999 180.60000000000002ZM860.1 306.6Q834.9 306.6 828.0 285.0Q830.4 285.0 834.45 285.15Q838.5 285.3 841.2 285.9Q843.3 286.2 844.8 286.35Q846.3 286.5 847.2 286.5Q860.7 286.5 869.7 274.5Q876.0 265.8 876.0 256.8Q876.0 250.8 873.0 245.1Q869.7 239.1 865.6500000000001 232.64999999999998Q861.6 226.2 856.8 219.3Q853.8 214.5 850.8 210.15Q847.8 205.8 845.4 201.60000000000002Q839.4 192.0 839.4 180.3Q839.4 169.5 845.55 161.25Q851.7 153.0 863.7 150.9L873.3 149.1Q881.1 147.6 886.95 146.85Q892.8 146.1 896.7 146.1Q909.3 146.1 919.5 152.1Q921.6 153.6 923.85 157.35Q926.1 161.1 927.3 163.20000000000002Q926.1 163.5 924.75 164.25Q923.4 165.0 921.6 165.9Q919.5 167.1 918.0 167.55Q916.5 168.0 915.0 168.3Q912.9 168.6 909.75 168.75Q906.6 168.9 902.4 168.9Q898.5 168.9 895.35 168.9Q892.2 168.9 890.1 169.20000000000002Q880.5 170.1 874.95 175.64999999999998Q869.4 181.2 869.4 189.0Q869.4 195.0 873.0 201.3Q880.8 214.2 895.5 232.2Q906.3 245.7 906.3 260.1Q906.3 267.9 902.7 276.6Q890.7 306.6 860.1 306.6ZM1065.0 311.7Q1063.8 311.7 1061.6999999999998 311.54999999999995Q1059.6 311.4 1056.8999999999999 311.1Q1042.8 311.7 1029.8999999999999 301.5Q1018.5 291.9 1018.5 280.2Q1018.5 270.3 1026.8999999999999 260.1Q1031.1 260.7 1031.85 262.65Q1032.6 264.6 1031.7 270.9Q1031.7 271.2 1031.85 271.95Q1032.0 272.7 1032.3 273.6Q1044.0 279.0 1060.2 279.0Q1072.2 279.0 1083.6 276.15Q1095.0 273.3 1103.25 268.5Q1111.5 263.7 1113.8999999999999 257.7Q1115.3999999999999 253.5 1110.0 245.25Q1104.6 237.0 1095.4499999999998 226.8Q1086.3 216.60000000000002 1076.1 207.0Q1068.8999999999999 200.4 1062.4499999999998 194.10000000000002Q1056.0 187.8 1050.0 181.5Q1043.3999999999999 174.3 1039.6499999999999 164.85000000000002Q1035.8999999999999 155.4 1035.8999999999999 145.20000000000002Q1035.8999999999999 131.4 1042.9499999999998 119.10000000000001Q1050.0 106.80000000000001 1064.1 99.0Q1091.1 83.70000000000002 1119.3 83.70000000000002Q1121.3999999999999 83.70000000000002 1124.1 83.85000000000001Q1126.8 84.0 1130.3999999999999 84.30000000000001Q1133.7 84.6 1136.1 85.2Q1138.5 85.80000000000001 1140.0 86.4Q1147.5 89.4 1147.5 94.80000000000001Q1147.5 100.20000000000002 1140.0 108.6Q1138.5 108.30000000000001 1136.1 108.30000000000001Q1133.7 108.30000000000001 1130.3999999999999 108.30000000000001Q1104.0 108.30000000000001 1077.8999999999999 123.6Q1071.6 127.5 1067.1 133.5Q1063.8 137.4 1063.8 141.9Q1063.8 149.70000000000002 1072.8 157.5Q1077.0 162.0 1084.1999999999998 170.1Q1091.3999999999999 178.2 1101.3 190.2L1108.2 197.4Q1118.1 207.9 1125.0 216.15Q1131.8999999999999 224.4 1137.0 232.35000000000002Q1142.1 240.3 1146.0 249.9Q1148.3999999999999 256.5 1148.3999999999999 261.3Q1148.3999999999999 274.2 1138.5 285.0Q1127.1 297.6 1112.1 303.45000000000005Q1097.1 309.3 1078.2 310.8Q1075.8 311.1 1072.5 311.4Q1069.2 311.7 1065.0 311.7ZM1254.3 302.1Q1248.0 302.1 1240.8 301.20000000000005Q1233.6 300.3 1226.85 295.95000000000005Q1220.1 291.6 1215.0 281.55Q1209.9 271.5 1207.5 253.2Q1207.8 250.2 1207.8 245.7Q1207.8 241.2 1207.8 235.2Q1207.8 225.60000000000002 1207.35 215.70000000000002Q1206.9 205.8 1206.3 195.60000000000002Q1205.7 193.8 1204.2 192.9L1198.2 191.4Q1191.0 189.9 1189.2 188.10000000000002Q1187.1 185.7 1186.35 183.0Q1185.6 180.3 1185.0 175.5Q1187.7 169.20000000000002 1194.9 169.20000000000002Q1196.7 169.5 1198.0500000000002 169.65Q1199.4 169.8 1200.0 169.8Q1206.3 169.8 1207.5 166.20000000000002Q1209.0 162.3 1209.0 150.3L1209.9 132.3Q1210.2 120.6 1211.7 96.9Q1212.0 84.6 1222.8 84.6Q1224.6 84.6 1225.9499999999998 84.75Q1227.3 84.9 1228.5 85.20000000000002Q1240.8 87.9 1245.0 93.0Q1249.2 98.1 1248.45 104.25Q1247.7 110.4 1246.8 117.0Q1237.8 169.8 1241.1 171.3Q1241.1 173.7 1245.3 175.2Q1249.2 176.4 1257.3 176.10000000000002Q1264.2 174.60000000000002 1269.45 173.55Q1274.7 172.5 1278.3 172.2Q1278.9 171.9 1280.25 171.9Q1281.6 171.9 1283.1 171.9Q1286.7 171.9 1287.9 172.8Q1290.6 174.3 1290.6 182.7Q1290.6 186.0 1289.85 188.7Q1289.1 191.4 1287.9 191.7Q1284.0 192.9 1279.2 193.95Q1274.4 195.0 1268.7 195.60000000000002Q1262.1 196.8 1257.3 197.85000000000002Q1252.5 198.9 1249.2 199.8Q1245.9 200.7 1242.6 204.3Q1239.3 207.9 1239.0 210.9L1238.1 240.9Q1237.8 252.6 1239.0 264.3Q1239.9 274.2 1242.9 278.54999999999995Q1245.9 282.9 1251.9 282.9Q1256.4 282.9 1265.7 279.6Q1270.2 277.5 1274.1 277.5Q1280.1 277.5 1282.2 283.8Q1283.1 285.9 1283.1 288.0Q1283.1 291.9 1280.25 294.29999999999995Q1277.4 296.7 1272.6 298.5Q1263.6 301.8 1254.3 302.1ZM1373.3999999999999 294.0Q1359.8999999999999 294.0 1347.0 288.9Q1334.1 284.1 1320.6 240.6L1325.1 212.7Q1328.1 201.0 1336.5 196.35Q1344.8999999999999 191.7 1359.0 188.7Q1368.0 186.9 1376.6999999999998 186.9Q1404.0 186.9 1423.1999999999998 205.5Q1433.1 215.4 1433.1 229.8Q1433.1 244.2 1422.8999999999999 260.1Q1410.6 278.7 1395.6 288.0Q1386.0 294.0 1373.3999999999999 294.0ZM1366.8 269.7Q1368.6 270.9 1373.55 270.29999999999995Q1378.5 269.7 1381.5 267.3Q1384.5 264.6 1388.6999999999998 258.45000000000005Q1392.8999999999999 252.3 1396.35 244.5Q1399.8 236.7 1399.8 229.5Q1399.8 219.9 1394.4 211.95Q1389.0 204.0 1379.3999999999999 201.3Q1378.5 201.0 1375.8 201.0Q1369.8 201.0 1369.1999999999998 202.8Q1366.8 208.8 1364.25 216.45000000000002Q1361.6999999999998 224.10000000000002 1358.6999999999998 233.10000000000002L1357.8 243.6Q1357.8 245.7 1357.9499999999998 250.2Q1358.1 254.7 1359.0 258.0Q1362.0 267.3 1366.8 269.7ZM1490.6999999999998 299.1Q1482.3 299.1 1475.6999999999998 291.9Q1469.1 284.7 1469.1 276.0Q1469.3999999999999 260.1 1469.3999999999999 236.25Q1469.3999999999999 212.4 1469.3999999999999 180.60000000000002Q1469.3999999999999 171.9 1473.2999999999997 168.45Q1477.1999999999998 165.0 1487.3999999999999 165.0Q1494.8999999999999 165.0 1500.1499999999999 169.2Q1505.3999999999999 173.4 1505.6999999999998 179.7Q1506.6 182.4 1506.0 189.0L1502.3999999999999 224.4Q1503.8999999999999 222.9 1506.8999999999999 215.7Q1510.1999999999998 208.5 1516.8 197.7Q1530.8999999999999 184.2 1548.6 181.5Q1566.3 178.8 1587.6 179.10000000000002Q1591.8 179.10000000000002 1592.85 181.35000000000002Q1593.8999999999999 183.60000000000002 1593.0 186.15Q1592.1 188.7 1589.6999999999998 189.60000000000002Q1571.6999999999998 195.60000000000002 1558.0499999999997 203.4Q1544.3999999999999 211.2 1534.5 223.8Q1511.1 253.5 1507.5 285.0Q1506.6 293.4 1502.3999999999999 296.25Q1498.1999999999998 299.1 1490.6999999999998 299.1ZM1689.0 296.7Q1680.6 296.7 1671.0 295.5Q1661.3999999999999 294.3 1651.6499999999999 289.20000000000005Q1641.8999999999999 284.1 1632.2999999999997 272.4Q1622.6999999999998 260.7 1614.0 239.7Q1612.8 234.9 1612.1999999999998 230.4Q1611.6 225.9 1611.6 221.4Q1611.6 207.3 1619.55 198.60000000000002Q1627.5 189.9 1645.1999999999998 182.10000000000002Q1661.6999999999998 175.2 1675.1999999999998 175.2Q1685.3999999999999 175.2 1694.3999999999999 178.2Q1723.1999999999998 187.2 1723.1999999999998 202.8Q1723.1999999999998 212.7 1711.5 226.8Q1707.8999999999999 231.0 1703.25 234.6Q1698.6 238.2 1691.55 242.39999999999998Q1684.5 246.6 1672.8 253.2Q1669.5 255.3 1662.8999999999999 255.6Q1659.6 255.9 1657.35 256.2Q1655.1 256.5 1653.8999999999999 256.8Q1656.3 266.7 1665.3 271.79999999999995Q1674.3 276.9 1685.3999999999999 276.9Q1694.6999999999998 276.9 1702.5 272.7Q1713.3 267.0 1721.6999999999998 259.2Q1727.3999999999999 253.5 1732.5 253.5Q1735.8 253.5 1738.1999999999998 256.8Q1740.6 261.0 1740.6 266.4Q1740.6 272.4 1738.1999999999998 275.7Q1730.3999999999999 287.7 1717.9499999999998 292.2Q1705.5 296.7 1689.0 296.7ZM1651.8 234.0Q1662.3 226.2 1670.4 219.75Q1678.5 213.3 1683.8999999999999 208.5Q1685.6999999999998 206.7 1685.6999999999998 201.9Q1685.6999999999998 198.60000000000002 1685.3999999999999 197.7Q1684.8 196.2 1683.3 195.0Q1681.1999999999998 194.10000000000002 1680.8999999999999 193.8Q1675.5 193.2 1668.9 197.7Q1662.3 202.2 1656.0 209.85Q1649.6999999999998 217.5 1644.8999999999999 227.4Q1647.3 238.5 1651.8 234.0Z"/><path fill="#5B7F6E" d="M475.53999999999996 414.04999999999995Q477.73999999999995 414.04999999999995 479.49999999999994 415.13Q481.25999999999993 416.21 482.28 418.09Q483.29999999999995 419.96999999999997 483.29999999999995 422.36999999999995Q483.29999999999995 424.72999999999996 482.28 426.65Q481.25999999999993 428.56999999999994 479.49999999999994 429.68999999999994Q477.73999999999995 430.80999999999995 475.53999999999996 430.80999999999995H467.41999999999996L467.69999999999993 430.3299999999999V440.40999999999997Q467.69999999999993 441.09 467.25999999999993 441.56999999999994Q466.81999999999994 442.04999999999995 466.13999999999993 442.04999999999995Q465.41999999999996 442.04999999999995 464.99999999999994 441.56999999999994Q464.5799999999999 441.09 464.5799999999999 440.40999999999997V415.65Q464.5799999999999 414.96999999999997 465.03999999999996 414.51Q465.49999999999994 414.04999999999995 466.17999999999995 414.04999999999995ZM475.53999999999996 427.72999999999996Q476.85999999999996 427.72999999999996 477.85999999999996 427.01Q478.85999999999996 426.28999999999996 479.4599999999999 425.04999999999995Q480.05999999999995 423.80999999999995 480.05999999999995 422.36999999999995Q480.05999999999995 420.84999999999997 479.4599999999999 419.68999999999994Q478.85999999999996 418.53 477.85999999999996 417.8299999999999Q476.85999999999996 417.12999999999994 475.53999999999996 417.12999999999994H467.41999999999996L467.69999999999993 416.68999999999994V428.12999999999994L467.41999999999996 427.72999999999996ZM499.13999999999993 414.04999999999995H513.3799999999999Q514.06 414.04999999999995 514.54 414.48999999999995Q515.02 414.92999999999995 515.02 415.60999999999996Q515.02 416.28999999999996 514.54 416.7099999999999Q514.06 417.12999999999994 513.3799999999999 417.12999999999994H500.49999999999994L500.8599999999999 416.44999999999993V426.56999999999994L500.4599999999999 426.12999999999994H511.5799999999999Q512.2599999999999 426.12999999999994 512.7399999999999 426.56999999999994Q513.2199999999999 427.00999999999993 513.2199999999999 427.68999999999994Q513.2199999999999 428.36999999999995 512.7399999999999 428.78999999999996Q512.2599999999999 429.21 511.5799999999999 429.21H500.5799999999999L500.8599999999999 428.84999999999997V439.21L500.61999999999995 438.92999999999995H513.3799999999999Q514.06 438.92999999999995 514.54 439.40999999999997Q515.02 439.88999999999993 515.02 440.48999999999995Q515.02 441.16999999999996 514.54 441.60999999999996Q514.06 442.04999999999995 513.3799999999999 442.04999999999995H499.13999999999993Q498.4599999999999 442.04999999999995 497.9999999999999 441.56999999999994Q497.5399999999999 441.09 497.5399999999999 440.40999999999997V415.65Q497.5399999999999 414.96999999999997 497.9999999999999 414.51Q498.4599999999999 414.04999999999995 499.13999999999993 414.04999999999995ZM531.18 442.04999999999995Q530.42 442.04999999999995 529.8799999999999 441.56999999999994Q529.3399999999999 441.09 529.3399999999999 440.40999999999997V415.65Q529.3399999999999 414.96999999999997 529.8 414.51Q530.26 414.04999999999995 530.9399999999999 414.04999999999995H541.9799999999999Q544.2199999999999 414.04999999999995 546.02 415.06999999999994Q547.8199999999999 416.09 548.8799999999999 417.87Q549.9399999999999 419.65 549.9399999999999 421.96999999999997Q549.9399999999999 423.65 549.3 425.10999999999996Q548.66 426.56999999999994 547.54 427.62999999999994Q546.42 428.68999999999994 544.9799999999999 429.24999999999994L544.0999999999999 428.60999999999996Q545.4599999999999 428.92999999999995 546.54 429.74999999999994Q547.6199999999999 430.56999999999994 548.3 431.8299999999999Q548.9799999999999 433.09 549.02 434.77Q549.0999999999999 436.24999999999994 549.2199999999999 437.12999999999994Q549.3399999999999 438.00999999999993 549.5799999999999 438.50999999999993Q549.8199999999999 439.00999999999993 550.26 439.28999999999996Q550.8199999999999 439.65 551.0 440.25Q551.18 440.84999999999997 550.78 441.40999999999997Q550.54 441.77 550.0999999999999 441.90999999999997Q549.66 442.04999999999995 549.22 442.01Q548.78 441.96999999999997 548.4599999999999 441.77Q547.8199999999999 441.40999999999997 547.2199999999999 440.7099999999999Q546.6199999999999 440.00999999999993 546.2199999999999 438.68999999999994Q545.8199999999999 437.36999999999995 545.8199999999999 435.09Q545.8199999999999 433.80999999999995 545.42 432.9699999999999Q545.02 432.12999999999994 544.3399999999999 431.60999999999996Q543.66 431.09 542.8199999999999 430.89Q541.9799999999999 430.68999999999994 541.0999999999999 430.68999999999994H532.18L532.66 429.96999999999997V440.40999999999997Q532.66 441.09 532.26 441.56999999999994Q531.8599999999999 442.04999999999995 531.18 442.04999999999995ZM532.18 427.80999999999995H541.9799999999999Q543.14 427.72999999999996 544.16 427.01Q545.18 426.28999999999996 545.8399999999999 424.98999999999995Q546.4999999999999 423.68999999999994 546.4999999999999 422.04999999999995Q546.4999999999999 419.92999999999995 545.1599999999999 418.53Q543.8199999999999 417.12999999999994 541.78 417.12999999999994H532.3399999999999L532.66 416.36999999999995V428.53ZM573.5399999999998 442.44999999999993Q570.5799999999999 442.44999999999993 568.3399999999999 441.56999999999994Q566.0999999999999 440.68999999999994 564.0199999999999 438.77Q563.7399999999999 438.48999999999995 563.56 438.15Q563.3799999999999 437.80999999999995 563.3799999999999 437.40999999999997Q563.3799999999999 436.77 563.8399999999999 436.27Q564.3 435.77 564.9799999999999 435.77Q565.5399999999998 435.77 565.9799999999999 436.21Q567.5399999999998 437.72999999999996 569.3599999999999 438.53Q571.18 439.3299999999999 573.4599999999999 439.3299999999999Q575.2199999999999 439.3299999999999 576.6399999999999 438.77Q578.06 438.21 578.8999999999999 437.21Q579.7399999999999 436.21 579.7399999999999 434.88999999999993Q579.6999999999999 433.28999999999996 578.8 432.25Q577.8999999999999 431.21 576.3199999999999 430.51Q574.7399999999999 429.80999999999995 572.6599999999999 429.3299999999999Q570.8199999999999 428.88999999999993 569.28 428.24999999999994Q567.7399999999999 427.60999999999996 566.6199999999999 426.66999999999996Q565.4999999999999 425.72999999999996 564.8799999999999 424.39Q564.2599999999999 423.04999999999995 564.2599999999999 421.24999999999994Q564.2599999999999 418.96999999999997 565.4599999999998 417.25Q566.6599999999999 415.53 568.7799999999999 414.59Q570.8999999999999 413.65 573.6599999999999 413.65Q576.0999999999999 413.65 578.28 414.44999999999993Q580.4599999999999 415.24999999999994 581.7799999999999 416.65Q582.5799999999999 417.40999999999997 582.5799999999999 418.12999999999994Q582.5799999999999 418.72999999999996 582.0799999999999 419.22999999999996Q581.5799999999999 419.72999999999996 580.9399999999999 419.72999999999996Q580.4999999999999 419.72999999999996 580.1399999999999 419.40999999999997Q579.4599999999999 418.65 578.4199999999998 418.04999999999995Q577.3799999999999 417.44999999999993 576.1399999999999 417.0899999999999Q574.8999999999999 416.72999999999996 573.6599999999999 416.72999999999996Q571.8199999999999 416.72999999999996 570.4199999999998 417.27Q569.0199999999999 417.80999999999995 568.2399999999999 418.78999999999996Q567.4599999999999 419.77 567.4599999999999 421.12999999999994Q567.4599999999999 422.65 568.3399999999999 423.63Q569.2199999999999 424.60999999999996 570.6999999999999 425.22999999999996Q572.18 425.84999999999997 573.9799999999999 426.3299999999999Q575.9399999999999 426.80999999999995 577.5999999999999 427.42999999999995Q579.2599999999999 428.04999999999995 580.4599999999998 428.9699999999999Q581.6599999999999 429.88999999999993 582.3199999999999 431.30999999999995Q582.9799999999999 432.72999999999996 582.9799999999999 434.80999999999995Q582.9799999999999 437.00999999999993 581.7399999999999 438.7299999999999Q580.4999999999999 440.44999999999993 578.3599999999999 441.42999999999995Q576.2199999999999 442.40999999999997 573.5399999999998 442.44999999999993ZM622.5799999999999 428.04999999999995Q622.5799999999999 431.12999999999994 621.5799999999999 433.74999999999994Q620.5799999999999 436.36999999999995 618.78 438.3299999999999Q616.9799999999999 440.28999999999996 614.5 441.36999999999995Q612.02 442.44999999999993 609.0999999999999 442.44999999999993Q606.14 442.44999999999993 603.68 441.36999999999995Q601.2199999999999 440.28999999999996 599.4199999999998 438.3299999999999Q597.6199999999999 436.36999999999995 596.6199999999999 433.74999999999994Q595.6199999999999 431.12999999999994 595.6199999999999 428.04999999999995Q595.6199999999999 424.92999999999995 596.6199999999999 422.30999999999995Q597.6199999999999 419.68999999999994 599.4199999999998 417.74999999999994Q601.2199999999999 415.80999999999995 603.68 414.72999999999996Q606.14 413.65 609.0999999999999 413.65Q612.02 413.65 614.5 414.72999999999996Q616.9799999999999 415.80999999999995 618.78 417.74999999999994Q620.5799999999999 419.68999999999994 621.5799999999999 422.30999999999995Q622.5799999999999 424.92999999999995 622.5799999999999 428.04999999999995ZM619.14 428.04999999999995Q619.14 424.77 617.8399999999999 422.25Q616.54 419.72999999999996 614.3 418.28999999999996Q612.06 416.84999999999997 609.0999999999999 416.84999999999997Q606.14 416.84999999999997 603.8799999999999 418.28999999999996Q601.6199999999999 419.72999999999996 600.3399999999999 422.25Q599.06 424.77 599.06 428.04999999999995Q599.06 431.28999999999996 600.3399999999999 433.8299999999999Q601.6199999999999 436.36999999999995 603.8799999999999 437.80999999999995Q606.14 439.24999999999994 609.0999999999999 439.24999999999994Q612.06 439.24999999999994 614.3 437.80999999999995Q616.54 436.36999999999995 617.8399999999999 433.8299999999999Q619.14 431.28999999999996 619.14 428.04999999999995ZM657.6199999999999 414.04999999999995Q658.2999999999998 414.04999999999995 658.6999999999998 414.4699999999999Q659.0999999999999 414.88999999999993 659.0999999999999 415.53V440.36999999999995Q659.0999999999999 441.12999999999994 658.6199999999999 441.5899999999999Q658.1399999999999 442.04999999999995 657.4599999999999 442.04999999999995Q657.0999999999999 442.04999999999995 656.7399999999999 441.90999999999997Q656.3799999999999 441.77 656.1799999999998 441.53L639.0599999999998 418.88999999999993L639.8599999999999 418.40999999999997V440.56999999999994Q639.8599999999999 441.21 639.4399999999998 441.63Q639.0199999999999 442.04999999999995 638.3399999999999 442.04999999999995Q637.6999999999999 442.04999999999995 637.3 441.63Q636.8999999999999 441.21 636.8999999999999 440.56999999999994V415.65Q636.8999999999999 414.92999999999995 637.3599999999999 414.48999999999995Q637.8199999999999 414.04999999999995 638.4599999999999 414.04999999999995Q638.8199999999999 414.04999999999995 639.1999999999999 414.18999999999994Q639.5799999999999 414.3299999999999 639.7799999999999 414.60999999999996L656.6599999999999 436.92999999999995L656.1399999999999 437.56999999999994V415.53Q656.1399999999999 414.88999999999993 656.56 414.4699999999999Q656.9799999999999 414.04999999999995 657.6199999999999 414.04999999999995ZM684.78 418.21 675.3799999999999 441.09Q675.2199999999999 441.56999999999994 674.8199999999999 441.8499999999999Q674.42 442.12999999999994 673.9799999999999 442.12999999999994Q673.2199999999999 442.12999999999994 672.8599999999999 441.7299999999999Q672.4999999999999 441.3299999999999 672.4999999999999 440.77Q672.4599999999999 440.48999999999995 672.5799999999999 440.16999999999996L682.9399999999999 414.96999999999997Q683.1399999999999 414.40999999999997 683.56 414.15Q683.9799999999999 413.88999999999993 684.4999999999999 413.92999999999995Q685.02 413.92999999999995 685.4399999999999 414.2099999999999Q685.8599999999999 414.48999999999995 686.02 414.96999999999997L696.3399999999999 439.92999999999995Q696.4599999999999 440.24999999999994 696.4599999999999 440.56999999999994Q696.4599999999999 441.28999999999996 695.9799999999999 441.7099999999999Q695.4999999999999 442.12999999999994 694.9 442.12999999999994Q694.42 442.12999999999994 694.02 441.8499999999999Q693.6199999999999 441.56999999999994 693.42 441.04999999999995L683.9 418.16999999999996ZM677.3799999999999 434.56999999999994 678.7399999999999 431.44999999999993H690.6199999999999L691.2199999999999 434.56999999999994ZM725.3 438.88999999999993Q725.9799999999999 438.88999999999993 726.4599999999999 439.3499999999999Q726.9399999999999 439.80999999999995 726.9399999999999 440.48999999999995Q726.9399999999999 441.16999999999996 726.4599999999999 441.60999999999996Q725.9799999999999 442.04999999999995 725.3 442.04999999999995H711.4599999999999Q710.78 442.04999999999995 710.3199999999999 441.56999999999994Q709.8599999999999 441.09 709.8599999999999 440.40999999999997V415.65Q709.8599999999999 414.96999999999997 710.3399999999999 414.51Q710.8199999999999 414.04999999999995 711.54 414.04999999999995Q712.2199999999999 414.04999999999995 712.6999999999999 414.51Q713.18 414.96999999999997 713.18 415.65V439.60999999999996L712.3799999999999 438.88999999999993ZM743.8599999999999 440.40999999999997Q743.8599999999999 441.09 743.3599999999999 441.56999999999994Q742.8599999999999 442.04999999999995 742.1799999999998 442.04999999999995Q741.4199999999998 442.04999999999995 740.9799999999998 441.56999999999994Q740.5399999999998 441.09 740.5399999999998 440.40999999999997V415.68999999999994Q740.5399999999998 414.96999999999997 741.0199999999999 414.51Q741.4999999999999 414.04999999999995 742.2199999999999 414.04999999999995Q742.8999999999999 414.04999999999995 743.3799999999999 414.51Q743.8599999999999 414.96999999999997 743.8599999999999 415.68999999999994ZM778.7399999999999 414.04999999999995Q779.4599999999999 414.04999999999995 779.9799999999999 414.48999999999995Q780.4999999999999 414.92999999999995 780.4999999999999 415.60999999999996Q780.4999999999999 416.12999999999994 780.1399999999999 416.60999999999996L762.9399999999998 439.24999999999994L762.6999999999999 438.96999999999997H778.5799999999999Q779.2599999999999 438.96999999999997 779.7399999999999 439.40999999999997Q780.2199999999999 439.84999999999997 780.2199999999999 440.48999999999995Q780.2199999999999 441.16999999999996 779.7399999999999 441.60999999999996Q779.2599999999999 442.04999999999995 778.5799999999999 442.04999999999995H759.9799999999999Q759.2599999999999 442.04999999999995 758.7799999999999 441.53Q758.2999999999998 441.00999999999993 758.2999999999998 440.44999999999993Q758.2999999999998 439.92999999999995 758.6599999999999 439.44999999999993L775.8199999999999 416.88999999999993L776.1399999999999 417.09H761.1799999999998Q760.4999999999999 417.09 760.0199999999999 416.65Q759.5399999999998 416.21 759.5399999999998 415.56999999999994Q759.5399999999998 414.88999999999993 760.0199999999999 414.4699999999999Q760.4999999999999 414.04999999999995 761.1799999999998 414.04999999999995ZM796.3399999999999 414.04999999999995H810.5799999999999Q811.2599999999999 414.04999999999995 811.7399999999999 414.48999999999995Q812.2199999999999 414.92999999999995 812.2199999999999 415.60999999999996Q812.2199999999999 416.28999999999996 811.7399999999999 416.7099999999999Q811.2599999999999 417.12999999999994 810.5799999999999 417.12999999999994H797.6999999999999L798.06 416.44999999999993V426.56999999999994L797.66 426.12999999999994H808.7799999999999Q809.4599999999999 426.12999999999994 809.9399999999999 426.56999999999994Q810.42 427.00999999999993 810.42 427.68999999999994Q810.42 428.36999999999995 809.9399999999999 428.78999999999996Q809.4599999999999 429.21 808.7799999999999 429.21H797.7799999999999L798.06 428.84999999999997V439.21L797.8199999999999 438.92999999999995H810.5799999999999Q811.2599999999999 438.92999999999995 811.7399999999999 439.40999999999997Q812.2199999999999 439.88999999999993 812.2199999999999 440.48999999999995Q812.2199999999999 441.16999999999996 811.7399999999999 441.60999999999996Q811.2599999999999 442.04999999999995 810.5799999999999 442.04999999999995H796.3399999999999Q795.66 442.04999999999995 795.1999999999999 441.56999999999994Q794.7399999999999 441.09 794.7399999999999 440.40999999999997V415.65Q794.7399999999999 414.96999999999997 795.1999999999999 414.51Q795.66 414.04999999999995 796.3399999999999 414.04999999999995ZM838.1399999999999 414.04999999999995Q841.0599999999998 414.04999999999995 843.2799999999999 415.15Q845.4999999999999 416.24999999999994 846.9799999999999 418.2099999999999Q848.4599999999999 420.16999999999996 849.1999999999998 422.7099999999999Q849.9399999999998 425.24999999999994 849.9399999999998 428.04999999999995Q849.9399999999998 431.88999999999993 848.6199999999999 435.06999999999994Q847.2999999999998 438.24999999999994 844.6999999999998 440.15Q842.0999999999999 442.04999999999995 838.1399999999999 442.04999999999995H828.1399999999999Q827.4599999999999 442.04999999999995 826.9999999999999 441.56999999999994Q826.5399999999998 441.09 826.5399999999998 440.40999999999997V415.65Q826.5399999999998 414.96999999999997 826.9999999999999 414.51Q827.4599999999999 414.04999999999995 828.1399999999999 414.04999999999995ZM837.7399999999999 438.92999999999995Q840.8199999999998 438.92999999999995 842.7599999999998 437.44999999999993Q844.6999999999998 435.96999999999997 845.5999999999999 433.48999999999995Q846.4999999999999 431.00999999999993 846.4999999999999 428.04999999999995Q846.4999999999999 425.88999999999993 845.9999999999999 423.90999999999997Q845.4999999999999 421.92999999999995 844.4399999999998 420.40999999999997Q843.3799999999999 418.88999999999993 841.7199999999998 418.00999999999993Q840.0599999999998 417.12999999999994 837.7399999999999 417.12999999999994H829.5399999999998L829.8599999999999 416.80999999999995V439.3299999999999L829.6199999999999 438.92999999999995ZM884.6599999999999 432.16999999999996Q883.8199999999999 432.16999999999996 883.3199999999999 431.68999999999994Q882.8199999999999 431.21 882.8199999999999 430.36999999999995V429.56999999999994Q882.8199999999999 428.68999999999994 883.3199999999999 428.2099999999999Q883.8199999999999 427.72999999999996 884.6599999999999 427.72999999999996H884.9799999999999Q885.8599999999999 427.72999999999996 886.3399999999999 428.2099999999999Q886.8199999999999 428.68999999999994 886.8199999999999 429.56999999999994V430.36999999999995Q886.8199999999999 431.21 886.3399999999999 431.68999999999994Q885.8599999999999 432.16999999999996 884.9799999999999 432.16999999999996ZM923.0999999999999 414.04999999999995Q923.7799999999999 414.04999999999995 924.2599999999999 414.51Q924.7399999999999 414.96999999999997 924.7399999999999 415.68999999999994V440.40999999999997Q924.7399999999999 441.09 924.2399999999999 441.56999999999994Q923.7399999999999 442.04999999999995 923.0599999999998 442.04999999999995Q922.2999999999998 442.04999999999995 921.8599999999999 441.56999999999994Q921.4199999999998 441.09 921.4199999999998 440.40999999999997V415.68999999999994Q921.4199999999998 414.96999999999997 921.8999999999999 414.51Q922.3799999999999 414.04999999999995 923.0999999999999 414.04999999999995ZM941.5399999999998 414.04999999999995Q942.2599999999999 414.04999999999995 942.7199999999998 414.51Q943.1799999999998 414.96999999999997 943.1799999999998 415.68999999999994V440.40999999999997Q943.1799999999998 441.09 942.6999999999998 441.56999999999994Q942.2199999999999 442.04999999999995 941.4999999999999 442.04999999999995Q940.8199999999998 442.04999999999995 940.3399999999999 441.56999999999994Q939.8599999999999 441.09 939.8599999999999 440.40999999999997V415.68999999999994Q939.8599999999999 414.96999999999997 940.3599999999999 414.51Q940.8599999999999 414.04999999999995 941.5399999999998 414.04999999999995ZM922.9399999999998 426.24999999999994H941.5799999999998L941.5399999999998 429.36999999999995H922.8199999999998ZM968.8999999999999 418.21 959.4999999999998 441.09Q959.3399999999998 441.56999999999994 958.9399999999998 441.8499999999999Q958.5399999999998 442.12999999999994 958.0999999999998 442.12999999999994Q957.3399999999998 442.12999999999994 956.9799999999998 441.7299999999999Q956.6199999999998 441.3299999999999 956.6199999999998 440.77Q956.5799999999998 440.48999999999995 956.6999999999998 440.16999999999996L967.0599999999998 414.96999999999997Q967.2599999999998 414.40999999999997 967.6799999999998 414.15Q968.0999999999998 413.88999999999993 968.6199999999998 413.92999999999995Q969.1399999999999 413.92999999999995 969.5599999999998 414.2099999999999Q969.9799999999998 414.48999999999995 970.1399999999999 414.96999999999997L980.4599999999998 439.92999999999995Q980.5799999999998 440.24999999999994 980.5799999999998 440.56999999999994Q980.5799999999998 441.28999999999996 980.0999999999998 441.7099999999999Q979.6199999999998 442.12999999999994 979.0199999999999 442.12999999999994Q978.5399999999998 442.12999999999994 978.1399999999999 441.8499999999999Q977.7399999999998 441.56999999999994 977.5399999999998 441.04999999999995L968.0199999999999 418.16999999999996ZM961.4999999999998 434.56999999999994 962.8599999999998 431.44999999999993H974.7399999999998L975.3399999999998 434.56999999999994ZM1014.6999999999998 414.04999999999995Q1015.3799999999998 414.04999999999995 1015.7799999999997 414.4699999999999Q1016.1799999999998 414.88999999999993 1016.1799999999998 415.53V440.36999999999995Q1016.1799999999998 441.12999999999994 1015.6999999999998 441.5899999999999Q1015.2199999999998 442.04999999999995 1014.5399999999998 442.04999999999995Q1014.1799999999998 442.04999999999995 1013.8199999999998 441.90999999999997Q1013.4599999999998 441.77 1013.2599999999998 441.53L996.1399999999998 418.88999999999993L996.9399999999998 418.40999999999997V440.56999999999994Q996.9399999999998 441.21 996.5199999999998 441.63Q996.0999999999998 442.04999999999995 995.4199999999998 442.04999999999995Q994.7799999999999 442.04999999999995 994.3799999999999 441.63Q993.9799999999998 441.21 993.9799999999998 440.56999999999994V415.65Q993.9799999999998 414.92999999999995 994.4399999999998 414.48999999999995Q994.8999999999999 414.04999999999995 995.5399999999998 414.04999999999995Q995.8999999999999 414.04999999999995 996.2799999999999 414.18999999999994Q996.6599999999999 414.3299999999999 996.8599999999998 414.60999999999996L1013.7399999999998 436.92999999999995L1013.2199999999998 437.56999999999994V415.53Q1013.2199999999998 414.88999999999993 1013.6399999999999 414.4699999999999Q1014.0599999999998 414.04999999999995 1014.6999999999998 414.04999999999995ZM1043.7799999999997 414.04999999999995Q1046.6999999999998 414.04999999999995 1048.9199999999998 415.15Q1051.1399999999999 416.24999999999994 1052.62 418.2099999999999Q1054.1 420.16999999999996 1054.84 422.7099999999999Q1055.58 425.24999999999994 1055.58 428.04999999999995Q1055.58 431.88999999999993 1054.2599999999998 435.06999999999994Q1052.9399999999998 438.24999999999994 1050.3399999999997 440.15Q1047.7399999999998 442.04999999999995 1043.7799999999997 442.04999999999995H1033.7799999999997Q1033.1 442.04999999999995 1032.6399999999999 441.56999999999994Q1032.1799999999998 441.09 1032.1799999999998 440.40999999999997V415.65Q1032.1799999999998 414.96999999999997 1032.6399999999999 414.51Q1033.1 414.04999999999995 1033.7799999999997 414.04999999999995ZM1043.3799999999999 438.92999999999995Q1046.4599999999998 438.92999999999995 1048.3999999999999 437.44999999999993Q1050.34 435.96999999999997 1051.2399999999998 433.48999999999995Q1052.1399999999999 431.00999999999993 1052.1399999999999 428.04999999999995Q1052.1399999999999 425.88999999999993 1051.6399999999999 423.90999999999997Q1051.1399999999999 421.92999999999995 1050.08 420.40999999999997Q1049.0199999999998 418.88999999999993 1047.3599999999997 418.00999999999993Q1045.6999999999998 417.12999999999994 1043.3799999999999 417.12999999999994H1035.1799999999998L1035.4999999999998 416.80999999999995V439.3299999999999L1035.2599999999998 438.92999999999995ZM1090.06 415.88999999999993Q1090.7399999999998 416.24999999999994 1090.8399999999997 416.9699999999999Q1090.9399999999998 417.68999999999994 1090.4599999999998 418.28999999999996Q1090.1 418.80999999999995 1089.54 418.8499999999999Q1088.9799999999998 418.88999999999993 1088.4199999999998 418.60999999999996Q1087.1 417.80999999999995 1085.58 417.3499999999999Q1084.06 416.88999999999993 1082.3799999999999 416.88999999999993Q1080.02 416.88999999999993 1078.06 417.7099999999999Q1076.1 418.53 1074.6599999999999 420.01Q1073.2199999999998 421.48999999999995 1072.4199999999998 423.53Q1071.62 425.56999999999994 1071.62 428.04999999999995Q1071.62 430.68999999999994 1072.46 432.77Q1073.3 434.84999999999997 1074.7599999999998 436.30999999999995Q1076.2199999999998 437.77 1078.1599999999999 438.53Q1080.1 439.28999999999996 1082.3799999999999 439.28999999999996Q1084.02 439.28999999999996 1085.54 438.84999999999997Q1087.06 438.40999999999997 1088.4199999999998 437.56999999999994Q1088.9799999999998 437.28999999999996 1089.54 437.36999999999995Q1090.1 437.44999999999993 1090.4999999999998 437.92999999999995Q1090.9799999999998 438.56999999999994 1090.8599999999997 439.27Q1090.7399999999998 439.96999999999997 1090.1 440.28999999999996Q1089.1 440.88999999999993 1087.82 441.38999999999993Q1086.54 441.88999999999993 1085.1599999999999 442.16999999999996Q1083.78 442.44999999999993 1082.3799999999999 442.44999999999993Q1079.4999999999998 442.44999999999993 1076.9399999999998 441.44999999999993Q1074.3799999999999 440.44999999999993 1072.4199999999998 438.56999999999994Q1070.4599999999998 436.68999999999994 1069.3199999999997 434.03Q1068.1799999999998 431.36999999999995 1068.1799999999998 428.04999999999995Q1068.1799999999998 424.92999999999995 1069.2599999999998 422.3299999999999Q1070.34 419.72999999999996 1072.2799999999997 417.80999999999995Q1074.2199999999998 415.88999999999993 1076.7999999999997 414.80999999999995Q1079.3799999999999 413.72999999999996 1082.3799999999999 413.72999999999996Q1084.4599999999998 413.72999999999996 1086.4399999999998 414.28999999999996Q1088.4199999999998 414.84999999999997 1090.06 415.88999999999993ZM1106.5399999999997 442.04999999999995Q1105.7799999999997 442.04999999999995 1105.2399999999998 441.56999999999994Q1104.6999999999998 441.09 1104.6999999999998 440.40999999999997V415.65Q1104.6999999999998 414.96999999999997 1105.1599999999999 414.51Q1105.62 414.04999999999995 1106.2999999999997 414.04999999999995H1117.34Q1119.58 414.04999999999995 1121.3799999999999 415.06999999999994Q1123.1799999999998 416.09 1124.2399999999998 417.87Q1125.2999999999997 419.65 1125.2999999999997 421.96999999999997Q1125.2999999999997 423.65 1124.6599999999999 425.10999999999996Q1124.0199999999998 426.56999999999994 1122.8999999999996 427.62999999999994Q1121.7799999999997 428.68999999999994 1120.34 429.24999999999994L1119.4599999999998 428.60999999999996Q1120.82 428.92999999999995 1121.8999999999999 429.74999999999994Q1122.9799999999998 430.56999999999994 1123.6599999999999 431.8299999999999Q1124.34 433.09 1124.3799999999999 434.77Q1124.4599999999998 436.24999999999994 1124.58 437.12999999999994Q1124.6999999999998 438.00999999999993 1124.9399999999998 438.50999999999993Q1125.1799999999998 439.00999999999993 1125.62 439.28999999999996Q1126.1799999999998 439.65 1126.3599999999997 440.25Q1126.5399999999997 440.84999999999997 1126.1399999999999 441.40999999999997Q1125.8999999999999 441.77 1125.4599999999998 441.90999999999997Q1125.0199999999998 442.04999999999995 1124.58 442.01Q1124.1399999999999 441.96999999999997 1123.82 441.77Q1123.1799999999998 441.40999999999997 1122.58 440.7099999999999Q1121.9799999999998 440.00999999999993 1121.58 438.68999999999994Q1121.1799999999998 437.36999999999995 1121.1799999999998 435.09Q1121.1799999999998 433.80999999999995 1120.7799999999997 432.9699999999999Q1120.3799999999999 432.12999999999994 1119.6999999999998 431.60999999999996Q1119.0199999999998 431.09 1118.1799999999998 430.89Q1117.34 430.68999999999994 1116.4599999999998 430.68999999999994H1107.5399999999997L1108.0199999999998 429.96999999999997V440.40999999999997Q1108.0199999999998 441.09 1107.62 441.56999999999994Q1107.2199999999998 442.04999999999995 1106.5399999999997 442.04999999999995ZM1107.5399999999997 427.80999999999995H1117.34Q1118.4999999999998 427.72999999999996 1119.5199999999998 427.01Q1120.5399999999997 426.28999999999996 1121.1999999999998 424.98999999999995Q1121.86 423.68999999999994 1121.86 422.04999999999995Q1121.86 419.92999999999995 1120.52 418.53Q1119.1799999999998 417.12999999999994 1117.1399999999999 417.12999999999994H1107.6999999999998L1108.0199999999998 416.36999999999995V428.53ZM1150.4199999999998 418.21 1141.0199999999998 441.09Q1140.86 441.56999999999994 1140.4599999999998 441.8499999999999Q1140.0599999999997 442.12999999999994 1139.62 442.12999999999994Q1138.86 442.12999999999994 1138.5 441.7299999999999Q1138.1399999999999 441.3299999999999 1138.1399999999999 440.77Q1138.1 440.48999999999995 1138.2199999999998 440.16999999999996L1148.5799999999997 414.96999999999997Q1148.7799999999997 414.40999999999997 1149.1999999999998 414.15Q1149.62 413.88999999999993 1150.1399999999999 413.92999999999995Q1150.6599999999999 413.92999999999995 1151.08 414.2099999999999Q1151.4999999999998 414.48999999999995 1151.6599999999999 414.96999999999997L1161.9799999999998 439.92999999999995Q1162.1 440.24999999999994 1162.1 440.56999999999994Q1162.1 441.28999999999996 1161.62 441.7099999999999Q1161.1399999999999 442.12999999999994 1160.5399999999997 442.12999999999994Q1160.0599999999997 442.12999999999994 1159.6599999999999 441.8499999999999Q1159.2599999999998 441.56999999999994 1159.0599999999997 441.04999999999995L1149.5399999999997 418.16999999999996ZM1143.0199999999998 434.56999999999994 1144.3799999999999 431.44999999999993H1156.2599999999998L1156.86 434.56999999999994ZM1177.1399999999999 442.04999999999995Q1176.4199999999998 442.04999999999995 1175.9599999999998 441.56999999999994Q1175.4999999999998 441.09 1175.4999999999998 440.40999999999997V415.65Q1175.4999999999998 414.96999999999997 1175.9599999999998 414.51Q1176.4199999999998 414.04999999999995 1177.0999999999997 414.04999999999995H1191.1399999999999Q1191.8199999999997 414.04999999999995 1192.2999999999997 414.48999999999995Q1192.7799999999997 414.92999999999995 1192.7799999999997 415.60999999999996Q1192.7799999999997 416.24999999999994 1192.2999999999997 416.68999999999994Q1191.8199999999997 417.12999999999994 1191.1399999999999 417.12999999999994H1178.5399999999997L1178.7799999999997 416.80999999999995V426.60999999999996L1178.5799999999997 426.16999999999996H1189.3399999999997Q1190.0199999999998 426.16999999999996 1190.4999999999998 426.63Q1190.9799999999998 427.09 1190.9799999999998 427.77Q1190.9799999999998 428.36999999999995 1190.4999999999998 428.8299999999999Q1190.0199999999998 429.28999999999996 1189.3399999999997 429.28999999999996H1178.4999999999998L1178.7799999999997 428.92999999999995V440.40999999999997Q1178.7799999999997 441.09 1178.2999999999997 441.56999999999994Q1177.8199999999997 442.04999999999995 1177.1399999999999 442.04999999999995ZM1215.7799999999997 442.04999999999995Q1215.0599999999997 442.04999999999995 1214.5799999999997 441.56999999999994Q1214.0999999999997 441.09 1214.0999999999997 440.40999999999997V415.68999999999994H1217.4999999999998V440.40999999999997Q1217.4999999999998 441.09 1217.0199999999998 441.56999999999994Q1216.5399999999997 442.04999999999995 1215.7799999999997 442.04999999999995ZM1206.4999999999998 417.09Q1205.8199999999997 417.09 1205.3599999999997 416.66999999999996Q1204.8999999999996 416.24999999999994 1204.8999999999996 415.56999999999994Q1204.8999999999996 414.88999999999993 1205.3599999999997 414.4699999999999Q1205.8199999999997 414.04999999999995 1206.4999999999998 414.04999999999995H1225.0999999999997Q1225.7799999999997 414.04999999999995 1226.2599999999998 414.4699999999999Q1226.7399999999998 414.88999999999993 1226.7399999999998 415.56999999999994Q1226.7399999999998 416.28999999999996 1226.2599999999998 416.68999999999994Q1225.7799999999997 417.09 1225.0999999999997 417.09ZM1242.1399999999996 414.04999999999995H1256.3799999999997Q1257.0599999999997 414.04999999999995 1257.5399999999997 414.48999999999995Q1258.0199999999998 414.92999999999995 1258.0199999999998 415.60999999999996Q1258.0199999999998 416.28999999999996 1257.5399999999997 416.7099999999999Q1257.0599999999997 417.12999999999994 1256.3799999999997 417.12999999999994H1243.4999999999998L1243.8599999999997 416.44999999999993V426.56999999999994L1243.4599999999998 426.12999999999994H1254.5799999999997Q1255.2599999999998 426.12999999999994 1255.7399999999998 426.56999999999994Q1256.2199999999998 427.00999999999993 1256.2199999999998 427.68999999999994Q1256.2199999999998 428.36999999999995 1255.7399999999998 428.78999999999996Q1255.2599999999998 429.21 1254.5799999999997 429.21H1243.5799999999997L1243.8599999999997 428.84999999999997V439.21L1243.6199999999997 438.92999999999995H1256.3799999999997Q1257.0599999999997 438.92999999999995 1257.5399999999997 439.40999999999997Q1258.0199999999998 439.88999999999993 1258.0199999999998 440.48999999999995Q1258.0199999999998 441.16999999999996 1257.5399999999997 441.60999999999996Q1257.0599999999997 442.04999999999995 1256.3799999999997 442.04999999999995H1242.1399999999996Q1241.4599999999998 442.04999999999995 1240.9999999999998 441.56999999999994Q1240.5399999999997 441.09 1240.5399999999997 440.40999999999997V415.65Q1240.5399999999997 414.96999999999997 1240.9999999999998 414.51Q1241.4599999999998 414.04999999999995 1242.1399999999996 414.04999999999995ZM1283.9399999999996 414.04999999999995Q1286.8599999999997 414.04999999999995 1289.0799999999997 415.15Q1291.2999999999997 416.24999999999994 1292.7799999999997 418.2099999999999Q1294.2599999999998 420.16999999999996 1294.9999999999998 422.7099999999999Q1295.7399999999998 425.24999999999994 1295.7399999999998 428.04999999999995Q1295.7399999999998 431.88999999999993 1294.4199999999996 435.06999999999994Q1293.0999999999997 438.24999999999994 1290.4999999999995 440.15Q1287.8999999999996 442.04999999999995 1283.9399999999996 442.04999999999995H1273.9399999999996Q1273.2599999999998 442.04999999999995 1272.7999999999997 441.56999999999994Q1272.3399999999997 441.09 1272.3399999999997 440.40999999999997V415.65Q1272.3399999999997 414.96999999999997 1272.7999999999997 414.51Q1273.2599999999998 414.04999999999995 1273.9399999999996 414.04999999999995ZM1283.5399999999997 438.92999999999995Q1286.6199999999997 438.92999999999995 1288.5599999999997 437.44999999999993Q1290.4999999999998 435.96999999999997 1291.3999999999996 433.48999999999995Q1292.2999999999997 431.00999999999993 1292.2999999999997 428.04999999999995Q1292.2999999999997 425.88999999999993 1291.7999999999997 423.90999999999997Q1291.2999999999997 421.92999999999995 1290.2399999999998 420.40999999999997Q1289.1799999999996 418.88999999999993 1287.5199999999995 418.00999999999993Q1285.8599999999997 417.12999999999994 1283.5399999999997 417.12999999999994H1275.3399999999997L1275.6599999999996 416.80999999999995V439.3299999999999L1275.4199999999996 438.92999999999995Z"/></svg>